<svg xmlns="http://www.w3.org/2000/svg" viewBox="0 0 122.81 70.56"><defs><style>.cls-1{fill:#fff;}.cls-2{fill:#fc2d14;}</style></defs><title>logo-outline</title><g id="Layer_2" data-name="Layer 2"><g id="Base_Outline" data-name="Base Outline"><path class="cls-1" d="M33.11,55a7.4,7.4,0,0,0,2.8.65,3,3,0,0,0,2.57-1.08A5.84,5.84,0,0,0,39.31,51V22.57h4v28.7a9.88,9.88,0,0,1-.43,2.95,7.37,7.37,0,0,1-1.25,2.45,6,6,0,0,1-2.07,1.67,6.51,6.51,0,0,1-3,.63,15.19,15.19,0,0,1-2.48-.2,8.45,8.45,0,0,1-2.22-.7ZM39,17.67V12.82h4.6v4.85Z"/><path class="cls-1" d="M65.16,49.57l-.2-3a8.58,8.58,0,0,1-7.4,3.5,10.69,10.69,0,0,1-2.93-.42A7.85,7.85,0,0,1,52,48.29a7.06,7.06,0,0,1-1.92-2.37,7.67,7.67,0,0,1-.75-3.55,8.07,8.07,0,0,1,3.62-6.95q3.63-2.55,11.68-2.7V30.47a6.5,6.5,0,0,0-1.18-4,4.63,4.63,0,0,0-4-1.57A5.81,5.81,0,0,0,55.88,26a6.65,6.65,0,0,0-2.17,3.13l-3.65-1.4a9.89,9.89,0,0,1,3.6-4.3,10.36,10.36,0,0,1,5.9-1.6,11.79,11.79,0,0,1,4,.62,8.07,8.07,0,0,1,2.82,1.71,6.72,6.72,0,0,1,1.68,2.54,9.24,9.24,0,0,1,.55,3.18v19.7Zm-6.5-2.7A6.49,6.49,0,0,0,62,46a10.84,10.84,0,0,0,2.6-2.15v-8c-3.84.07-6.65.61-8.45,1.62a5,5,0,0,0-2.7,4.58A4.24,4.24,0,0,0,55,45.74,6,6,0,0,0,58.66,46.87Z"/><path class="cls-1" d="M80,36c0,3.8.61,6.57,1.85,8.3a5.78,5.78,0,0,0,5,2.6,5.89,5.89,0,0,0,3.55-1A11.06,11.06,0,0,0,93,42.72l3.25,2.1a12.56,12.56,0,0,1-3.83,3.85,10.25,10.25,0,0,1-5.72,1.55,11.44,11.44,0,0,1-4.23-.78A9,9,0,0,1,79,47a12.2,12.2,0,0,1-2.38-4.38,21.06,21.06,0,0,1-.87-6.47,21.29,21.29,0,0,1,.85-6.4A12.45,12.45,0,0,1,79,25.27a9.37,9.37,0,0,1,3.52-2.6,11.14,11.14,0,0,1,4.38-.85,11.81,11.81,0,0,1,5,1,10.57,10.57,0,0,1,3.9,3.38l-3.1,2.25A8.36,8.36,0,0,0,90,25.77,6.21,6.21,0,0,0,86.86,25a5.86,5.86,0,0,0-5,2.65Q80,30.33,80,36Z"/><path class="cls-1" d="M102.06,49.57V12.82h4v21L116,22.57h5.2L110.31,34.32l12.5,15.25h-5.1L106.06,35.32V49.57Z"/><path class="cls-2" d="M14.62,70.56H0V0H14.62V4.9h-9V65.66h9Z"/></g></g></svg>